<?xml version="1.0" encoding="utf-8"?>
<!-- Generator: Adobe Illustrator 27.9.1, SVG Export Plug-In . SVG Version: 6.00 Build 0)  -->
<svg version="1.1" id="Layer_1" xmlns="http://www.w3.org/2000/svg" xmlns:xlink="http://www.w3.org/1999/xlink" x="0px" y="0px"
	 viewBox="0 0 746.4 124.7" style="enable-background:new 0 0 746.4 124.7;" xml:space="preserve">
<style type="text/css">
	.st0{fill:#20336C;}
	.st1{fill:#FFFFFF;}
	.st2{fill-rule:evenodd;clip-rule:evenodd;fill:url(#SVGID_1_);}
	.st3{opacity:0.7;fill-rule:evenodd;clip-rule:evenodd;fill:url(#SVGID_00000153695361642581019890000003619377446498433703_);}
	.st4{opacity:0.3;fill-rule:evenodd;clip-rule:evenodd;fill:url(#SVGID_00000090979519037230702020000004669366543663551149_);}
	.st5{fill-rule:evenodd;clip-rule:evenodd;fill:#FFFFFF;}
	.st6{fill:#789FCE;}
	.st7{fill-rule:evenodd;clip-rule:evenodd;fill:url(#SVGID_00000047743752348299691190000005890689101600570754_);}
	.st8{opacity:0.7;fill-rule:evenodd;clip-rule:evenodd;fill:url(#SVGID_00000155854691433203110430000008542884092729786799_);}
	.st9{opacity:0.3;fill-rule:evenodd;clip-rule:evenodd;fill:url(#SVGID_00000089541982700495184610000005912547197051215279_);}
	.st10{fill-rule:evenodd;clip-rule:evenodd;fill:url(#SVGID_00000034783673283320382980000007118496934239025837_);}
	.st11{opacity:0.7;fill-rule:evenodd;clip-rule:evenodd;fill:url(#SVGID_00000073723765656915094410000014323416475078566579_);}
	.st12{opacity:0.3;fill-rule:evenodd;clip-rule:evenodd;fill:url(#SVGID_00000178908691484390740910000010324094881335757242_);}
	.st13{fill-rule:evenodd;clip-rule:evenodd;fill:url(#SVGID_00000165226381509795155240000001376400959319048844_);}
	.st14{opacity:0.7;fill-rule:evenodd;clip-rule:evenodd;fill:url(#SVGID_00000148650103956947121450000003445182096312991654_);}
	.st15{opacity:0.3;fill-rule:evenodd;clip-rule:evenodd;fill:url(#SVGID_00000070114996862894967550000014964875198281977775_);}
	.st16{fill-rule:evenodd;clip-rule:evenodd;fill:url(#SVGID_00000024692679038285020080000012384589468828865182_);}
	.st17{opacity:0.7;fill-rule:evenodd;clip-rule:evenodd;fill:url(#SVGID_00000170994943075292137560000007499467700230030992_);}
	.st18{opacity:0.3;fill-rule:evenodd;clip-rule:evenodd;fill:url(#SVGID_00000042709734259510410390000015122796573409871267_);}
	.st19{fill-rule:evenodd;clip-rule:evenodd;fill:url(#SVGID_00000155120000258206850870000002759090729120640415_);}
	.st20{opacity:0.7;fill-rule:evenodd;clip-rule:evenodd;fill:url(#SVGID_00000072980620016318772960000015139331545399937202_);}
	.st21{opacity:0.3;fill-rule:evenodd;clip-rule:evenodd;fill:url(#SVGID_00000163762870391153299270000016708635554101639302_);}
	.st22{fill-rule:evenodd;clip-rule:evenodd;fill:url(#SVGID_00000081623536228640434230000016359448235069638308_);}
	.st23{opacity:0.7;fill-rule:evenodd;clip-rule:evenodd;fill:url(#SVGID_00000091698162636388987190000012224613548646908323_);}
	.st24{opacity:0.3;fill-rule:evenodd;clip-rule:evenodd;fill:url(#SVGID_00000065787750525177150850000005524540462060904362_);}
	.st25{fill-rule:evenodd;clip-rule:evenodd;fill:url(#SVGID_00000156556893831693595790000013551053365243276714_);}
	.st26{opacity:0.7;fill-rule:evenodd;clip-rule:evenodd;fill:url(#SVGID_00000124134671623794158180000016574296596083163052_);}
	.st27{opacity:0.3;fill-rule:evenodd;clip-rule:evenodd;fill:url(#SVGID_00000138566282770819019330000007767203564969085617_);}
	.st28{fill-rule:evenodd;clip-rule:evenodd;fill:url(#SVGID_00000049933629066221072260000004462405564971119002_);}
	.st29{opacity:0.7;fill-rule:evenodd;clip-rule:evenodd;fill:url(#SVGID_00000054968891776897953810000008374924329814304410_);}
	.st30{opacity:0.3;fill-rule:evenodd;clip-rule:evenodd;fill:url(#SVGID_00000098942626356663843650000001386178128561979058_);}
	.st31{fill-rule:evenodd;clip-rule:evenodd;fill:url(#SVGID_00000180354962259926697520000000216855468615946932_);}
	.st32{opacity:0.7;fill-rule:evenodd;clip-rule:evenodd;fill:url(#SVGID_00000181070551405918653390000017435983635547649708_);}
	.st33{opacity:0.3;fill-rule:evenodd;clip-rule:evenodd;fill:url(#SVGID_00000101095558677574555980000018106399825774722944_);}
	.st34{fill-rule:evenodd;clip-rule:evenodd;fill:url(#SVGID_00000052074734787730238990000011397802295475029933_);}
	.st35{opacity:0.7;fill-rule:evenodd;clip-rule:evenodd;fill:url(#SVGID_00000170974046347804830240000009861570591526271413_);}
	.st36{opacity:0.3;fill-rule:evenodd;clip-rule:evenodd;fill:url(#SVGID_00000098217798980577487050000006769021695227865521_);}
	.st37{fill-rule:evenodd;clip-rule:evenodd;fill:url(#SVGID_00000084520185625857822880000016162976006296080059_);}
	.st38{opacity:0.7;fill-rule:evenodd;clip-rule:evenodd;fill:url(#SVGID_00000098201461319092449630000005754612424846099075_);}
	.st39{opacity:0.3;fill-rule:evenodd;clip-rule:evenodd;fill:url(#SVGID_00000076574362757909330340000018417737791703180965_);}
</style>
<g>
	<g>
		<path class="st0" d="M282.2,103.5h2.6v21h-2.6V103.5z"/>
		<path class="st0" d="M295.5,108.7c2.9,0,4.9,1.5,5.8,3.1v-2.8h2.6v15.5h-2.6v-2.9c-0.9,1.7-2.9,3.1-5.8,3.1
			c-4.1,0-7.3-3.3-7.3-8.1C288.2,111.8,291.4,108.7,295.5,108.7z M296.1,110.9c-2.8,0-5.2,2.1-5.2,5.7c0,3.7,2.4,5.8,5.2,5.8
			s5.3-2.1,5.3-5.8C301.3,113.1,298.9,110.9,296.1,110.9z"/>
		<path class="st0" d="M308.9,111.1h-2v-2.1h2V105h2.6v3.9h4.1v2.1h-4.1v9.2c0,1.5,0.6,2.1,2.2,2.1h1.9v2.2h-2.3
			c-2.8,0-4.3-1.1-4.3-4.3V111.1z"/>
	</g>
</g>
<g>
	<linearGradient id="SVGID_1_" gradientUnits="userSpaceOnUse" x1="-35.3429" y1="9.9638" x2="86.8112" y2="77.1118">
		<stop  offset="0.2404" style="stop-color:#94BDE5"/>
		<stop  offset="0.4003" style="stop-color:#6983AD"/>
		<stop  offset="0.5693" style="stop-color:#465A88"/>
		<stop  offset="0.7148" style="stop-color:#2E4172"/>
		<stop  offset="0.8292" style="stop-color:#203265"/>
		<stop  offset="0.8984" style="stop-color:#1B2C61"/>
	</linearGradient>
	<circle class="st2" cx="60.9" cy="62.8" r="60.4"/>
	
		<linearGradient id="SVGID_00000046329866558645337650000017058531215451142563_" gradientUnits="userSpaceOnUse" x1="-741.8456" y1="-1878.9563" x2="-823.6325" y2="-1960.7432" gradientTransform="matrix(-1 0 0 -1 -721.896 -1861.4702)">
		<stop  offset="0.1396" style="stop-color:#7DA7D9"/>
		<stop  offset="0.237" style="stop-color:#79A0D0"/>
		<stop  offset="0.365" style="stop-color:#6E90BF"/>
		<stop  offset="0.5102" style="stop-color:#5D79A9"/>
		<stop  offset="0.668" style="stop-color:#465E8E"/>
		<stop  offset="0.8342" style="stop-color:#2B3F71"/>
		<stop  offset="0.9259" style="stop-color:#1B2C61"/>
	</linearGradient>
	
		<path style="opacity:0.7;fill-rule:evenodd;clip-rule:evenodd;fill:url(#SVGID_00000046329866558645337650000017058531215451142563_);" d="
		M3,55C3,25.8,28.9,2.1,60.9,2.1s57.9,23.7,57.9,52.9c0,38.1-28.7,61.9-57.5,61.9C32.2,117,3,93.9,3,55z"/>
	
		<linearGradient id="SVGID_00000178185766525483786870000010081712695981372080_" gradientUnits="userSpaceOnUse" x1="60.8648" y1="71.4289" x2="60.8648" y2="1.84">
		<stop  offset="0" style="stop-color:#659AD2"/>
		<stop  offset="1" style="stop-color:#BADAF3"/>
	</linearGradient>
	
		<path style="opacity:0.3;fill-rule:evenodd;clip-rule:evenodd;fill:url(#SVGID_00000178185766525483786870000010081712695981372080_);" d="
		M60.9,71c-21.6,0-42.1-1-60.6-3C0,66,0,64.1,0,62.2C0,30.7,23.8,4.7,54.5,1.6c2.1,0,4.2-0.1,6.3-0.1s4.2,0.1,6.3,0.1
		c30.7,3.1,54.5,29,54.5,60.6c0,1.8,0,3.8-0.3,5.8C103,70,82.4,71,60.9,71z"/>
	<g>
		<polygon class="st5" points="61.2,19.5 51.5,27 70.9,27 		"/>
		<path class="st5" d="M82.9,101.4l-2.5-14.2l-2.7-2.7h-2.1l-4.8-38.3h2.3l5.1-5.1H61.2H44.3l5.1,5.1h2.4l-4.9,38.3h-2.1l-2.7,2.7
			l-2.5,14.2h19v-12h2.7h2.7v12H82.9z M63.1,74.5h-1.8h-1.8v-6.6h1.8h1.8V74.5z M63.1,59.8h-1.8h-1.8v-6.8h1.8h1.8V59.8z"/>
		<path class="st5" d="M56.1,33.8c0,2.8,2.3,5.1,5.1,5.1s5.2-2.3,5.2-5.1c0-3-2.4-5.2-5.2-5.2S56.1,30.8,56.1,33.8z"/>
	</g>
</g>
<path class="st0" d="M210.7,0c-4.1,7.2-8.7,13.4-13.8,18.5s-10.3,9.4-15.6,12.7s-10.5,5.8-15.7,7.4c-5.1,1.6-9.8,2.4-14,2.4V44
	c3.4,0,7.2-0.5,11.3-1.4c4.1-0.9,8.3-2.4,12.7-4.5c4.3-2,8.7-4.6,13.1-7.8c4.4-3.2,8.6-7,12.6-11.6l-12.5,35.4h14L222.3,0H210.7z
	 M184.7,102.8c-3.8,4.1-9.2,6.3-15.4,6.4l-5.5,15.5h13.5l8.2-22.8C185.2,102.2,185,102.5,184.7,102.8z"/>
<path class="st0" d="M242.1,0l-18.7,50.2c0.9-0.1,1.7-0.1,2.6-0.1s1.7,0,2.6,0c7.3,0,13.5,0.8,18.8,2.3c1.7,0.5,3.4,1.1,4.9,1.8H268
	c1.7,0,3.3,0.1,4.8,0.3c-0.7-0.7-1.5-1.4-2.3-2c-4.1-3.3-9.4-5.9-15.8-7.9c-6.4-2-14.1-3-22.9-3L242,12.8h46.2L293.5,0H242.1z
	 M267.1,97.7l-0.1,0c-0.7,0-1.5-0.1-2.2-0.2c-0.1,0.2-0.3,0.5-0.4,0.7c-1.8,3.1-4,6-6.5,8.7s-5.5,5.1-8.8,7.1s-6.8,3.6-10.7,4.7
	c-3.9,1.2-8,1.8-12.4,1.8c-3.1,0-6.1-0.4-9-1.1c-2.9-0.7-5.5-1.7-7.8-3c-2.3-1.3-4.4-2.8-6.1-4.6c-1.8-1.8-3.1-3.8-4-5.9l-2.4,3.4
	c1.2,2.3,2.9,4.4,4.9,6.2c2,1.9,4.3,3.5,6.8,4.9c2.5,1.4,5.3,2.4,8.2,3.2s5.9,1.1,9,1.1c5.9,0,11.3-0.7,16.5-2
	c5.1-1.3,9.8-3.1,14-5.3c4.2-2.2,8-4.9,11.3-8c3.3-3.1,6.1-6.4,8.4-9.9c1-1.5,1.8-3.1,2.6-4.6c-3.2,1.8-6.8,2.8-10.6,2.8H267.1z"/>
<g>
	<g>
		<g>
			<rect x="683.4" y="83.7" class="st6" width="7.7" height="8.1"/>
		</g>
		<g>
			<path class="st6" d="M727.5,62.9c-2.9-2.4-6.7-3.7-10.8-3.7c-0.2,0-0.3,0-0.5,0c-3.6,0-6.8,1.1-9.8,3.6v-2.8H699v43.2h7.5V89.9
				c2.8,2.4,5.9,3.4,9.8,3.6c0.2,0,0.3,0,0.5,0c4.2,0,8.3-1.6,11.4-4.4c3.6-3.4,5.5-8,5.5-12.7C733.7,71.2,731.4,66.3,727.5,62.9z
				 M716.3,85.8c-5.4,0-9.4-4.2-9.4-9.6c0-5.5,4.2-9.6,9.1-9.6c0,0,0.2,0,0.3,0c5.5,0.2,9.4,4.4,9.4,9.6
				C725.7,81.4,721.7,85.8,716.3,85.8z"/>
		</g>
		<g>
			<rect x="738.9" y="49.3" class="st6" width="7.5" height="43.2"/>
		</g>
	</g>
	<g>
		<g>
			<path class="st0" d="M520.5,59.1c-3.9,0-6.8,1.8-9.4,5.5c-2.4-3.7-6-5.5-11.1-5.5c-3.6,0-6.4,1.3-8.5,4.2v-3.6h-7.2v31.4h7V77.7
				c0-7.5,1.6-11.4,7-11.4c5.4,0,6.5,3.6,6.5,10.9v14h7.3V77.7c0-7.5,1.5-11.4,6.7-11.4c5.4,0,6.4,3.6,6.4,10.9v14h7.2V73.3
				C532.3,64,528.1,59.1,520.5,59.1z"/>
		</g>
		<g>
			<path class="st0" d="M553.4,58.8h-0.2c-4.2,0-8.3,1.8-11.6,4.9c-3.1,3.3-4.7,7.3-4.7,11.7c0,4.2,1.6,8.3,4.6,11.6
				c3.3,3.4,7.2,5.1,11.9,5.1s8.8-1.6,11.9-5.1c3.3-3.1,4.7-7.2,4.7-11.7c0-4.4-1.8-8.8-5.2-11.9C561.7,60.4,557.9,58.8,553.4,58.8z
				 M553.4,84.7c-5.4,0-8.8-3.6-8.8-9.3c0-5.5,3.6-9.4,8.8-9.4c5.1,0,9,3.7,9,9.1C562.3,81.1,558.7,84.7,553.4,84.7z"/>
		</g>
		<g>
			<path class="st0" d="M581.2,63.3v-3.6h-6.8v31.4h7.3v-16c0-5.9,1.3-8.6,7.7-9.1v-6.8C586,59.3,583.5,60.6,581.2,63.3z"/>
		</g>
		<g>
			<path class="st0" d="M604.4,72.3c-3.9-1.6-6-2.1-6-4.6c0-1.6,1.3-2.9,2.9-2.9c1.8,0,2.9,1.1,2.9,3.3c0,0,0,0,0,0.2h6.5
				c-0.2-5.9-3.7-9.3-9.3-9.3c-5.2,0-9.6,4.1-9.6,9.4c0,3.1,1.1,5.4,3.4,7.3c1,0.8,3.3,1.1,6,2.4c2.3,1.1,3.4,2.1,3.4,4.2
				c0,2-1.6,3.4-3.7,3.4s-3.7-1.8-3.7-4.7c0-0.2,0-0.2,0-0.5h-6.7c0.3,7.2,4.4,11.4,10.3,11.4c6.2,0,10.6-4.4,10.6-10.3
				C611.4,76.5,609.3,74.4,604.4,72.3z"/>
		</g>
		<g>
			<polygon class="st0" points="641.8,59.8 633.7,59.8 623.4,74.4 623.4,49.5 616.3,49.5 616.3,91.2 623.4,91.2 623.4,75.2 
				634.8,91.2 644.1,91.2 630.9,74.7 			"/>
		</g>
		<g>
			<path class="st0" d="M668.6,59.8v3.7c-2-2.9-5.2-4.6-9.8-4.6h-0.2c-4.7,0-8.5,1.5-11.7,4.9c-2.9,3.1-4.6,7.2-4.6,11.6
				c0,9.3,7,16.5,16.5,16.5c4.9,0,8.1-1.5,9.8-4.6v3.9h7.2V59.8H668.6z M659.1,84.5h-0.3c-4.7-0.2-8.8-4.1-8.8-9.3
				c0-5.1,4.1-9,8.8-9h0.2c4.6,0,8.8,4.1,8.8,9.3C667.7,80.3,663.7,84.5,659.1,84.5z"/>
		</g>
	</g>
	<g>
		<g>
			<path class="st6" d="M178.5,63.5c-2.9-2.9-6.2-4.4-10.3-4.6c-0.2,0-0.3,0-0.7,0c-9.3,0-16,7-16,16.5c0,4.1,1.8,8.5,5.1,11.6
				c2.9,2.8,6.7,4.2,10.9,4.2c0.3,0,0.5,0,0.7,0c4.1-0.2,7.5-1.6,10.3-4.6c0,0.2,0,0.2,0,0.3c0,6.5-4.2,10.4-9.9,10.4h-0.3
				c-3.3,0-6.2-1.8-7.7-4.6h-7.2c2.4,7,7.5,10.6,14.8,10.8h0.5c9.9,0,16.3-6.5,16.3-17.6V59.8h-6.5V63.5z M168.4,84.5h-0.2
				c-5.2,0-9.4-4.1-9.4-9.6c0-5.2,4.4-9.3,9.4-9.3h0.2c4.9,0,9.4,4.2,9.4,9.8C177.8,80.3,173.3,84.5,168.4,84.5z"/>
		</g>
		<g>
			<path class="st6" d="M206,58.8h-0.3c-4.2,0-8.3,1.8-11.6,4.9c-3.1,3.3-4.7,7.3-4.7,11.7c0,4.2,1.6,8.3,4.7,11.6
				c3.1,3.4,7,5.1,11.7,5.1h0.2c4.6,0,8.6-1.6,11.7-4.9c3.3-3.3,4.7-7.3,4.7-11.9c0-4.4-1.8-8.8-5.1-11.9
				C214.2,60.4,210.4,58.8,206,58.8z M206,84.7c-5.5,0-9-3.6-9-9.3c0-5.5,3.6-9.3,9-9.3c5.1,0,8.8,3.6,8.8,9
				C214.8,81.1,211.2,84.7,206,84.7z"/>
		</g>
		<g>
			<path class="st6" d="M239.1,72.3c-3.9-1.6-6-2.1-6-4.6c0-1.6,1.3-2.9,2.9-2.9c2,0,2.9,1.1,2.9,3.3v0.2h6.7
				c-0.3-5.9-3.7-9.3-9.3-9.3c-5.4,0-9.6,4.1-9.6,9.4c0,3.1,1.1,5.4,3.4,7.3c1,0.8,3.1,1.1,5.9,2.4c2.4,1.1,3.4,2.1,3.4,4.2
				c0,2-1.5,3.4-3.6,3.4c-2.3,0-3.9-1.8-3.9-4.7c0-0.2,0-0.2,0-0.3h-6.7c0.3,7,4.4,11.2,10.4,11.2c6,0,10.6-4.4,10.6-10.3
				C246.2,76.5,244,74.6,239.1,72.3z"/>
		</g>
		<g>
			<path class="st6" d="M278,62.7c-2.8-2.4-6.4-3.7-10.4-3.7c-0.2,0-0.2,0-0.3,0c-3.6,0-6.7,1.1-9.4,3.4v-2.6h-7.2v41.5h7.2V88.6
				c2.8,2.3,5.7,3.3,9.4,3.4c0.2,0,0.3,0,0.5,0c4.1,0,7.8-1.5,10.9-4.2c3.4-3.3,5.2-7.7,5.2-12.2C283.9,70.5,281.8,65.9,278,62.7z
				 M267.3,84.7h-0.2c-5.1,0-9-4.1-9-9.3c0-5.2,3.9-9.1,8.6-9.1c0.2,0,0.3,0,0.5,0c5.4,0.2,9.1,4.1,9.1,9.3
				C276.4,80.5,272.3,84.7,267.3,84.7z"/>
		</g>
		<g>
			<path class="st6" d="M303.6,58.8h-0.2c-4.2,0-8.5,1.8-11.6,4.9c-3.1,3.3-4.7,7.3-4.7,11.7c0,4.2,1.6,8.3,4.6,11.6
				c3.3,3.4,7.2,5.1,11.9,5.1s8.8-1.6,11.9-4.9c3.1-3.3,4.7-7.3,4.7-11.9c0-4.4-2-8.8-5.2-11.9C311.9,60.4,308.2,58.8,303.6,58.8z
				 M303.6,84.7c-5.4,0-9-3.6-9-9.3c0-5.5,3.6-9.3,9-9.3c5.1,0,9,3.6,9,9C312.6,81.1,309,84.7,303.6,84.7z"/>
		</g>
		<g>
			<path class="st6" d="M349.4,62.2c-2.8-2.1-5.7-3.1-9.4-3.3h-0.3c-4.2,0-8,1.5-10.9,4.2c-3.4,3.1-5.4,7.7-5.4,12.2
				c0,4.9,2.1,9.6,5.9,12.9c2.8,2.4,6.4,3.7,10.4,3.7c0.2,0,0.2,0,0.3,0c3.6-0.2,6.7-1.1,9.4-3.4v2.6h7.2V49.5h-7.2V62.2z
				 M340.4,84.7c-0.2,0-0.3,0-0.5,0c-5.4-0.2-9-4.2-9-9.1c0-5.1,3.9-9.3,9-9.3h0.2c5.1,0,9,4.1,9,9.4
				C349.1,80.8,345.1,84.7,340.4,84.7z"/>
		</g>
		<g>
			<path class="st6" d="M386.9,63.5c-2.1-2.9-5.2-4.6-9.8-4.6h-0.2c-4.9,0-8.6,1.5-11.7,4.9c-2.8,3.1-4.4,7.2-4.4,11.6
				c0,9.3,6.8,16.5,16.3,16.5c4.9,0,8-1.5,9.8-4.6v3.9h7.2V59.8h-7.2V63.5z M377.2,84.5h-0.2c-4.9-0.2-9-4.1-9-9.3c0-5.1,4.1-9,9-9
				c4.7,0,9,4.1,9,9.3C386,80.3,381.8,84.5,377.2,84.5z"/>
		</g>
		<g>
			<path class="st6" d="M407.1,63.3v-3.6h-6.8v31.4h7.3v-16c0-5.9,1.3-8.6,7.7-9.1v-6.8C411.8,59.3,409.2,60.6,407.1,63.3z"/>
		</g>
		<g>
			<polygon class="st6" points="443.7,59.8 435.4,59.8 425.1,74.4 425.1,49.5 418.1,49.5 418.1,91.2 425.1,91.2 425.1,75.2 
				436.7,91.2 446,91.2 432.8,74.7 			"/>
		</g>
		<g>
			<path class="st6" d="M470.4,59.8v3.7c-2.1-2.9-5.2-4.6-9.8-4.6h-0.2c-4.7,0-8.6,1.5-11.7,4.9c-2.9,3.1-4.6,7.2-4.6,11.6
				c0,9.3,7,16.5,16.5,16.5c4.9,0,8-1.5,9.8-4.6v3.9h7.2V59.8H470.4z M460.8,84.5h-0.2c-4.9-0.2-9-4.1-9-9.3c0-5.1,4.1-9,9-9h0.2
				c4.6,0,8.8,4.1,8.8,9.3C469.6,80.3,465.4,84.5,460.8,84.5z"/>
		</g>
	</g>
</g>
</svg>
