<?xml version="1.0" encoding="utf-8"?>
<!-- Generator: Adobe Illustrator 24.3.0, SVG Export Plug-In . SVG Version: 6.00 Build 0)  -->
<svg version="1.1" id="Layer_1" xmlns="http://www.w3.org/2000/svg" xmlns:xlink="http://www.w3.org/1999/xlink" x="0px" y="0px"
	 viewBox="0 0 294.5 41.6" style="enable-background:new 0 0 294.5 41.6;" xml:space="preserve">
<style type="text/css">
	.st0{fill:#005C2E;}
	.st1{filter:url(#Adobe_OpacityMaskFilter);}
	.st2{filter:url(#Adobe_OpacityMaskFilter_1_);}
	.st3{mask:url(#SVGID_1_);fill:url(#SVGID_2_);}
	.st4{opacity:0.15;fill:url(#SVGID_3_);}
	.st5{filter:url(#Adobe_OpacityMaskFilter_2_);}
	.st6{filter:url(#Adobe_OpacityMaskFilter_3_);}
	.st7{mask:url(#SVGID_4_);fill:url(#SVGID_5_);}
	.st8{opacity:0.15;fill:url(#SVGID_6_);}
	.st9{fill:url(#SVGID_7_);}
	.st10{opacity:0.2;fill:#FFFFFF;}
	.st11{filter:url(#Adobe_OpacityMaskFilter_4_);}
	.st12{filter:url(#Adobe_OpacityMaskFilter_5_);}
	.st13{mask:url(#SVGID_8_);fill:url(#SVGID_9_);}
	.st14{opacity:0.15;fill:url(#SVGID_10_);}
	.st15{filter:url(#Adobe_OpacityMaskFilter_6_);}
	.st16{filter:url(#Adobe_OpacityMaskFilter_7_);}
	.st17{mask:url(#SVGID_11_);fill:url(#SVGID_12_);}
	.st18{opacity:0.15;fill:url(#SVGID_13_);}
	.st19{fill:url(#SVGID_14_);}
	.st20{filter:url(#Adobe_OpacityMaskFilter_8_);}
	.st21{filter:url(#Adobe_OpacityMaskFilter_9_);}
	.st22{mask:url(#SVGID_15_);fill:url(#SVGID_16_);}
	.st23{opacity:0.15;fill:url(#SVGID_17_);}
	.st24{filter:url(#Adobe_OpacityMaskFilter_10_);}
	.st25{filter:url(#Adobe_OpacityMaskFilter_11_);}
	.st26{mask:url(#SVGID_18_);fill:url(#SVGID_19_);}
	.st27{opacity:0.15;fill:url(#SVGID_20_);}
	.st28{fill:url(#SVGID_21_);}
	.st29{fill:#00451F;}
	.st30{fill:#84BC38;}
</style>
<g>
	<path class="st0" d="M0.2,26.2l14.5,7.5c0.5-1.1,1.4-3.5,1.6-6C4.6,27.2,1.5,15.1,1.5,15.1s-1.1,2.4-1.4,5.3
		C-0.1,22.4-0.1,24.4,0.2,26.2z"/>
	<defs>
		<filter id="Adobe_OpacityMaskFilter" filterUnits="userSpaceOnUse" x="1.4" y="15.1" width="14.9" height="18.6">
			<feFlood  style="flood-color:white;flood-opacity:1" result="back"/>
			<feBlend  in="SourceGraphic" in2="back" mode="normal"/>
		</filter>
	</defs>
	<mask maskUnits="userSpaceOnUse" x="1.4" y="15.1" width="14.9" height="18.6" id="SVGID_1_">
		<g class="st1">
			<defs>
				<filter id="Adobe_OpacityMaskFilter_1_" filterUnits="userSpaceOnUse" x="1.4" y="15.1" width="14.9" height="18.6">
					<feFlood  style="flood-color:white;flood-opacity:1" result="back"/>
					<feBlend  in="SourceGraphic" in2="back" mode="normal"/>
				</filter>
			</defs>
			<mask maskUnits="userSpaceOnUse" x="1.4" y="15.1" width="14.9" height="18.6" id="SVGID_1_">
				<g class="st2">
				</g>
			</mask>
			
				<linearGradient id="SVGID_2_" gradientUnits="userSpaceOnUse" x1="1369.0176" y1="838.3726" x2="1374.229" y2="852.474" gradientTransform="matrix(-0.6194 -0.3199 0.4792 -0.9279 453.0394 1246.2745)">
				<stop  offset="0" style="stop-color:#FFFFFF"/>
				<stop  offset="1" style="stop-color:#000000"/>
			</linearGradient>
			<path class="st3" d="M10.1,31.4l4.5,2.3c0.5-1.1,1.4-3.5,1.6-6C4.6,27.2,1.5,15.1,1.5,15.1C0.5,24.7,8.1,30.6,10.1,31.4z"/>
		</g>
	</mask>
	
		<linearGradient id="SVGID_3_" gradientUnits="userSpaceOnUse" x1="1369.0176" y1="838.3726" x2="1374.229" y2="852.474" gradientTransform="matrix(-0.6194 -0.3199 0.4792 -0.9279 453.0394 1246.2745)">
		<stop  offset="0" style="stop-color:#010202"/>
		<stop  offset="1" style="stop-color:#EF7E61"/>
	</linearGradient>
	<path class="st4" d="M10.1,31.4l4.5,2.3c0.5-1.1,1.4-3.5,1.6-6C4.6,27.2,1.5,15.1,1.5,15.1C0.5,24.7,8.1,30.6,10.1,31.4z"/>
	<defs>
		<filter id="Adobe_OpacityMaskFilter_2_" filterUnits="userSpaceOnUse" x="0" y="15.1" width="16.3" height="18.6">
			<feFlood  style="flood-color:white;flood-opacity:1" result="back"/>
			<feBlend  in="SourceGraphic" in2="back" mode="normal"/>
		</filter>
	</defs>
	<mask maskUnits="userSpaceOnUse" x="0" y="15.1" width="16.3" height="18.6" id="SVGID_4_">
		<g class="st5">
			<defs>
				<filter id="Adobe_OpacityMaskFilter_3_" filterUnits="userSpaceOnUse" x="0" y="15.1" width="16.3" height="18.6">
					<feFlood  style="flood-color:white;flood-opacity:1" result="back"/>
					<feBlend  in="SourceGraphic" in2="back" mode="normal"/>
				</filter>
			</defs>
			<mask maskUnits="userSpaceOnUse" x="0" y="15.1" width="16.3" height="18.6" id="SVGID_4_">
				<g class="st6">
				</g>
			</mask>
			
				<linearGradient id="SVGID_5_" gradientUnits="userSpaceOnUse" x1="1369.171" y1="839.1083" x2="1373.9736" y2="850.3486" gradientTransform="matrix(-0.6194 -0.3199 0.4792 -0.9279 453.0394 1246.2745)">
				<stop  offset="0" style="stop-color:#FFFFFF"/>
				<stop  offset="1" style="stop-color:#000000"/>
			</linearGradient>
			<path class="st7" d="M0.2,26.2l14.5,7.5c0.5-1.1,1.4-3.5,1.6-6c-1.4-0.1-2.6-0.3-3.8-0.6c-8.9,1.6-14.4-2.7-11-12
				c0,0-1.1,2.4-1.4,5.3C-0.1,22.4-0.1,24.4,0.2,26.2z"/>
		</g>
	</mask>
	
		<linearGradient id="SVGID_6_" gradientUnits="userSpaceOnUse" x1="1369.171" y1="839.1083" x2="1373.9736" y2="850.3486" gradientTransform="matrix(-0.6194 -0.3199 0.4792 -0.9279 453.0394 1246.2745)">
		<stop  offset="0" style="stop-color:#010202"/>
		<stop  offset="1" style="stop-color:#52524E"/>
	</linearGradient>
	<path class="st8" d="M0.2,26.2l14.5,7.5c0.5-1.1,1.4-3.5,1.6-6c-1.4-0.1-2.6-0.3-3.8-0.6c-8.9,1.6-14.4-2.7-11-12
		c0,0-1.1,2.4-1.4,5.3C-0.1,22.4-0.1,24.4,0.2,26.2z"/>
	
		<linearGradient id="SVGID_7_" gradientUnits="userSpaceOnUse" x1="5.0531" y1="10.1876" x2="33.0041" y2="10.1876" gradientTransform="matrix(0.999 -4.423519e-02 4.423519e-02 0.999 -5.2024 20.6218)">
		<stop  offset="0.15" style="stop-color:#5AB031"/>
		<stop  offset="0.569" style="stop-color:#A9C933"/>
		<stop  offset="0.8436" style="stop-color:#D3D937"/>
	</linearGradient>
	<path class="st9" d="M7,37.4c2.3,1.2,4.9,1.5,7.6,1c-0.2,1-0.4,1.6-0.4,1.6c8.1-2.1,14.1-10.5,14.1-10.5s-7.2-2.8-11.8-6.1
		c0,1.4-0.1,2.8-0.2,4.2c-4.3,1-16.8,3.1-16.1-7.3C-0.7,28.1,1.7,34.7,7,37.4z"/>
	<path class="st10" d="M16.3,27.7c-4.3,1-16.8,3.1-16.1-7.3C-0.7,28.1,6.6,30.4,16.3,27.7"/>
	<path class="st0" d="M35.1,37.2l-0.8-16.3c-1.2,0.1-3.7,0.5-6,1.6c5.5,10.4-3.5,19.1-3.5,19.1s2.6-0.2,5.3-1.5
		C31.9,39.3,33.6,38.3,35.1,37.2z"/>
	<defs>
		<filter id="Adobe_OpacityMaskFilter_4_" filterUnits="userSpaceOnUse" x="24.7" y="20.9" width="9.8" height="20.7">
			<feFlood  style="flood-color:white;flood-opacity:1" result="back"/>
			<feBlend  in="SourceGraphic" in2="back" mode="normal"/>
		</filter>
	</defs>
	<mask maskUnits="userSpaceOnUse" x="24.7" y="20.9" width="9.8" height="20.7" id="SVGID_8_">
		<g class="st11">
			<defs>
				<filter id="Adobe_OpacityMaskFilter_5_" filterUnits="userSpaceOnUse" x="24.7" y="20.9" width="9.8" height="20.7">
					<feFlood  style="flood-color:white;flood-opacity:1" result="back"/>
					<feBlend  in="SourceGraphic" in2="back" mode="normal"/>
				</filter>
			</defs>
			<mask maskUnits="userSpaceOnUse" x="24.7" y="20.9" width="9.8" height="20.7" id="SVGID_8_">
				<g class="st12">
				</g>
			</mask>
			
				<linearGradient id="SVGID_9_" gradientUnits="userSpaceOnUse" x1="551.5108" y1="1360.7677" x2="556.7222" y2="1374.8691" gradientTransform="matrix(3.266784e-02 0.6964 -1.0432 4.893748e-02 1436.8884 -421.3141)">
				<stop  offset="0" style="stop-color:#FFFFFF"/>
				<stop  offset="1" style="stop-color:#000000"/>
			</linearGradient>
			<path class="st13" d="M34.5,26l-0.2-5.1c-1.2,0.1-3.7,0.5-6,1.6c5.5,10.4-3.5,19.1-3.5,19.1C33.6,37.7,34.9,28.1,34.5,26z"/>
		</g>
	</mask>
	
		<linearGradient id="SVGID_10_" gradientUnits="userSpaceOnUse" x1="551.5108" y1="1360.7677" x2="556.7222" y2="1374.8691" gradientTransform="matrix(3.266784e-02 0.6964 -1.0432 4.893748e-02 1436.8884 -421.3141)">
		<stop  offset="0" style="stop-color:#010202"/>
		<stop  offset="1" style="stop-color:#EF7E61"/>
	</linearGradient>
	<path class="st14" d="M34.5,26l-0.2-5.1c-1.2,0.1-3.7,0.5-6,1.6c5.5,10.4-3.5,19.1-3.5,19.1C33.6,37.7,34.9,28.1,34.5,26z"/>
	<defs>
		<filter id="Adobe_OpacityMaskFilter_6_" filterUnits="userSpaceOnUse" x="24.7" y="20.9" width="10.3" height="20.7">
			<feFlood  style="flood-color:white;flood-opacity:1" result="back"/>
			<feBlend  in="SourceGraphic" in2="back" mode="normal"/>
		</filter>
	</defs>
	<mask maskUnits="userSpaceOnUse" x="24.7" y="20.9" width="10.3" height="20.7" id="SVGID_11_">
		<g class="st15">
			<defs>
				<filter id="Adobe_OpacityMaskFilter_7_" filterUnits="userSpaceOnUse" x="24.7" y="20.9" width="10.3" height="20.7">
					<feFlood  style="flood-color:white;flood-opacity:1" result="back"/>
					<feBlend  in="SourceGraphic" in2="back" mode="normal"/>
				</filter>
			</defs>
			<mask maskUnits="userSpaceOnUse" x="24.7" y="20.9" width="10.3" height="20.7" id="SVGID_11_">
				<g class="st16">
				</g>
			</mask>
			
				<linearGradient id="SVGID_12_" gradientUnits="userSpaceOnUse" x1="551.6642" y1="1361.5034" x2="556.4669" y2="1372.7438" gradientTransform="matrix(3.266784e-02 0.6964 -1.0432 4.893748e-02 1436.8884 -421.3141)">
				<stop  offset="0" style="stop-color:#FFFFFF"/>
				<stop  offset="1" style="stop-color:#000000"/>
			</linearGradient>
			<path class="st17" d="M35.1,37.2l-0.8-16.3c-1.2,0.1-3.7,0.5-6,1.6c0.6,1.2,1.1,2.4,1.4,3.6c5.8,6.9,4.9,13.8-4.9,15.5
				c0,0,2.6-0.2,5.3-1.5C31.9,39.3,33.6,38.3,35.1,37.2z"/>
		</g>
	</mask>
	
		<linearGradient id="SVGID_13_" gradientUnits="userSpaceOnUse" x1="551.6642" y1="1361.5034" x2="556.4669" y2="1372.7438" gradientTransform="matrix(3.266784e-02 0.6964 -1.0432 4.893748e-02 1436.8884 -421.3141)">
		<stop  offset="0" style="stop-color:#010202"/>
		<stop  offset="1" style="stop-color:#52524E"/>
	</linearGradient>
	<path class="st18" d="M35.1,37.2l-0.8-16.3c-1.2,0.1-3.7,0.5-6,1.6c0.6,1.2,1.1,2.4,1.4,3.6c5.8,6.9,4.9,13.8-4.9,15.5
		c0,0,2.6-0.2,5.3-1.5C31.9,39.3,33.6,38.3,35.1,37.2z"/>
	
		<linearGradient id="SVGID_14_" gradientUnits="userSpaceOnUse" x1="770.8861" y1="-179.3343" x2="798.8372" y2="-179.3343" gradientTransform="matrix(-0.5378 -0.8431 0.8431 -0.5378 604.5628 588.3613)">
		<stop  offset="0.15" style="stop-color:#5AB031"/>
		<stop  offset="0.569" style="stop-color:#A9C933"/>
		<stop  offset="0.8436" style="stop-color:#D3D937"/>
	</linearGradient>
	<path class="st19" d="M41.4,25.7c-0.1-2.6-1.2-5-2.9-7.1c1-0.3,1.6-0.5,1.6-0.5c-5.8-6-16.1-6.9-16.1-6.9s1.1,7.7,0.6,13.2
		c1.2-0.7,2.5-1.3,3.7-1.9c3,3.2,11,13,1.8,17.6C37.1,37,41.7,31.6,41.4,25.7z"/>
	<path class="st10" d="M28.3,22.5c3,3.2,11,13,1.8,17.6C37.1,37,35.4,29.5,28.3,22.5"/>
	<path class="st0" d="M27.1,1.5l-13.7,8.8c0.7,1,2.3,2.9,4.4,4.4c6.3-9.9,18.3-6.5,18.3-6.5s-1.5-2.1-3.9-3.9
		C30.5,3.2,28.8,2.2,27.1,1.5z"/>
	<defs>
		<filter id="Adobe_OpacityMaskFilter_8_" filterUnits="userSpaceOnUse" x="13.4" y="5.1" width="22.7" height="9.6">
			<feFlood  style="flood-color:white;flood-opacity:1" result="back"/>
			<feBlend  in="SourceGraphic" in2="back" mode="normal"/>
		</filter>
	</defs>
	<mask maskUnits="userSpaceOnUse" x="13.4" y="5.1" width="22.7" height="9.6" id="SVGID_15_">
		<g class="st20">
			<defs>
				<filter id="Adobe_OpacityMaskFilter_9_" filterUnits="userSpaceOnUse" x="13.4" y="5.1" width="22.7" height="9.6">
					<feFlood  style="flood-color:white;flood-opacity:1" result="back"/>
					<feBlend  in="SourceGraphic" in2="back" mode="normal"/>
				</filter>
			</defs>
			<mask maskUnits="userSpaceOnUse" x="13.4" y="5.1" width="22.7" height="9.6" id="SVGID_15_">
				<g class="st21">
				</g>
			</mask>
			
				<linearGradient id="SVGID_16_" gradientUnits="userSpaceOnUse" x1="282.5369" y1="626.9664" x2="287.7484" y2="641.0678" gradientTransform="matrix(0.5867 -0.3765 0.564 0.879 -499.2104 -439.558)">
				<stop  offset="0" style="stop-color:#FFFFFF"/>
				<stop  offset="1" style="stop-color:#000000"/>
			</linearGradient>
			<path class="st22" d="M17.7,7.5l-4.3,2.7c0.7,1,2.3,2.9,4.4,4.4c6.3-9.9,18.3-6.5,18.3-6.5C28.3,2.5,19.4,6.2,17.7,7.5z"/>
		</g>
	</mask>
	
		<linearGradient id="SVGID_17_" gradientUnits="userSpaceOnUse" x1="282.5369" y1="626.9664" x2="287.7484" y2="641.0678" gradientTransform="matrix(0.5867 -0.3765 0.564 0.879 -499.2104 -439.558)">
		<stop  offset="0" style="stop-color:#010202"/>
		<stop  offset="1" style="stop-color:#EF7E61"/>
	</linearGradient>
	<path class="st23" d="M17.7,7.5l-4.3,2.7c0.7,1,2.3,2.9,4.4,4.4c6.3-9.9,18.3-6.5,18.3-6.5C28.3,2.5,19.4,6.2,17.7,7.5z"/>
	<defs>
		<filter id="Adobe_OpacityMaskFilter_10_" filterUnits="userSpaceOnUse" x="13.4" y="1.5" width="22.7" height="13.2">
			<feFlood  style="flood-color:white;flood-opacity:1" result="back"/>
			<feBlend  in="SourceGraphic" in2="back" mode="normal"/>
		</filter>
	</defs>
	<mask maskUnits="userSpaceOnUse" x="13.4" y="1.5" width="22.7" height="13.2" id="SVGID_18_">
		<g class="st24">
			<defs>
				<filter id="Adobe_OpacityMaskFilter_11_" filterUnits="userSpaceOnUse" x="13.4" y="1.5" width="22.7" height="13.2">
					<feFlood  style="flood-color:white;flood-opacity:1" result="back"/>
					<feBlend  in="SourceGraphic" in2="back" mode="normal"/>
				</filter>
			</defs>
			<mask maskUnits="userSpaceOnUse" x="13.4" y="1.5" width="22.7" height="13.2" id="SVGID_18_">
				<g class="st25">
				</g>
			</mask>
			
				<linearGradient id="SVGID_19_" gradientUnits="userSpaceOnUse" x1="282.6904" y1="627.7021" x2="287.493" y2="638.9424" gradientTransform="matrix(0.5867 -0.3765 0.564 0.879 -499.2104 -439.558)">
				<stop  offset="0" style="stop-color:#FFFFFF"/>
				<stop  offset="1" style="stop-color:#000000"/>
			</linearGradient>
			<path class="st26" d="M27.1,1.5l-13.7,8.8c0.7,1,2.3,2.9,4.4,4.4c0.7-1.2,1.6-2.2,2.4-3c3-8.5,9.5-11.2,15.9-3.5
				c0,0-1.5-2.1-3.9-3.9C30.5,3.2,28.8,2.2,27.1,1.5z"/>
		</g>
	</mask>
	
		<linearGradient id="SVGID_20_" gradientUnits="userSpaceOnUse" x1="282.6904" y1="627.7021" x2="287.493" y2="638.9424" gradientTransform="matrix(0.5867 -0.3765 0.564 0.879 -499.2104 -439.558)">
		<stop  offset="0" style="stop-color:#010202"/>
		<stop  offset="1" style="stop-color:#52524E"/>
	</linearGradient>
	<path class="st27" d="M27.1,1.5l-13.7,8.8c0.7,1,2.3,2.9,4.4,4.4c0.7-1.2,1.6-2.2,2.4-3c3-8.5,9.5-11.2,15.9-3.5
		c0,0-1.5-2.1-3.9-3.9C30.5,3.2,28.8,2.2,27.1,1.5z"/>
	
		<linearGradient id="SVGID_21_" gradientUnits="userSpaceOnUse" x1="552.1004" y1="578.6575" x2="580.0515" y2="578.6575" gradientTransform="matrix(-0.4612 0.8873 -0.8873 -0.4612 791.357 -223.5806)">
		<stop  offset="0.15" style="stop-color:#5AB031"/>
		<stop  offset="0.569" style="stop-color:#A9C933"/>
		<stop  offset="0.8436" style="stop-color:#D3D937"/>
	</linearGradient>
	<path class="st28" d="M14,1.8c-2.2,1.4-3.7,3.5-4.7,6C8.5,7.1,8.1,6.7,8.1,6.7c-2.2,8,2.1,17.4,2.1,17.4s6.1-4.8,11.1-7.1
		c-1.2-0.7-2.4-1.5-3.5-2.2c1.3-4.2,5.7-16.1,14.3-10.3C25.9-0.2,19-1.4,14,1.8z"/>
	<path class="st10" d="M17.8,14.7c1.3-4.2,5.7-16.1,14.3-10.3C25.9-0.2,20.3,5,17.8,14.7"/>
	<path class="st29" d="M61.8,24.4v3.4h-9.6v-2.4l4.5-6.3h-4.3v-3.4h9.1v2.4L57,24.4H61.8z"/>
	<path class="st29" d="M63.6,12.6c0-1.2,1-2.2,2.2-2.2s2.2,1,2.2,2.2s-1,2.2-2.2,2.2S63.6,13.7,63.6,12.6z M64,15.8h3.6v12H64V15.8z
		"/>
	<path class="st29" d="M76.4,24.9c1,0,1.8-0.4,2.3-0.9l2.9,1.7c-1.2,1.6-3,2.5-5.2,2.5c-4.1,0-6.7-2.8-6.7-6.4
		c0-3.6,2.6-6.4,6.4-6.4c3.5,0,6.1,2.7,6.1,6.4c0,0.5,0,1-0.1,1.4h-8.5C73.9,24.5,75,24.9,76.4,24.9z M78.6,20.5
		c-0.4-1.4-1.5-1.9-2.6-1.9c-1.4,0-2.3,0.7-2.6,1.9H78.6z"/>
	<path class="st29" d="M84.2,10.2h3.6v17.6h-3.6V10.2z"/>
	<path class="st29" d="M89.9,21.8c0-3.6,2.8-6.4,6.4-6.4c3.5,0,6.4,2.8,6.4,6.4c0,3.6-2.8,6.4-6.4,6.4
		C92.7,28.1,89.9,25.4,89.9,21.8z M99,21.8c0-1.7-1.2-2.8-2.8-2.8c-1.6,0-2.8,1.1-2.8,2.8c0,1.7,1.2,2.8,2.8,2.8
		C97.8,24.6,99,23.5,99,21.8z"/>
	<path class="st29" d="M116.2,20.4v7.4h-3.6v-6.9c0-1.5-0.9-2.2-2.1-2.2c-1.3,0-2.2,0.8-2.2,2.5v6.6h-3.6v-12h3.6v1.1
		c0.7-0.9,1.9-1.5,3.4-1.5C114.1,15.4,116.2,17.2,116.2,20.4z"/>
	<path class="st29" d="M131,15.8v12h-3.6v-1.1c-0.8,0.9-2,1.5-3.6,1.5c-3.2,0-5.8-2.8-5.8-6.4c0-3.6,2.6-6.4,5.8-6.4
		c1.6,0,2.8,0.6,3.6,1.5v-1.1H131z M127.4,21.8c0-1.8-1.2-2.9-2.9-2.9c-1.7,0-2.9,1.1-2.9,2.9c0,1.8,1.2,2.9,2.9,2.9
		C126.2,24.7,127.4,23.6,127.4,21.8z"/>
	<path class="st30" d="M146,15.8v11.4c0,4-3.2,5.8-6.4,5.8c-2.5,0-4.6-0.9-5.7-2.9l3.1-1.8c0.5,0.8,1.2,1.5,2.7,1.5
		c1.7,0,2.7-0.9,2.7-2.6v-1.1c-0.8,1-1.9,1.6-3.5,1.6c-3.4,0-5.9-2.8-5.9-6.1c0-3.3,2.5-6.1,5.9-6.1c1.6,0,2.7,0.6,3.5,1.6v-1.2H146
		z M142.5,21.6c0-1.7-1.2-2.8-2.9-2.8s-2.9,1.1-2.9,2.8c0,1.7,1.2,2.8,2.9,2.8S142.5,23.2,142.5,21.6z"/>
	<path class="st30" d="M148.1,21.8c0-3.6,2.8-6.4,6.4-6.4s6.4,2.8,6.4,6.4c0,3.6-2.8,6.4-6.4,6.4S148.1,25.4,148.1,21.8z
		 M157.2,21.8c0-1.7-1.2-2.8-2.8-2.8c-1.6,0-2.8,1.1-2.8,2.8c0,1.7,1.2,2.8,2.8,2.8C156,24.6,157.2,23.5,157.2,21.8z"/>
	<path class="st30" d="M172,24.2c0,2.8-2.4,3.9-5,3.9c-2.4,0-4.2-0.9-5.2-2.9l3.1-1.8c0.3,0.9,1,1.4,2,1.4c0.9,0,1.3-0.3,1.3-0.7
		c0-1.3-5.9-0.6-5.9-4.8c0-2.6,2.2-3.9,4.7-3.9c1.9,0,3.7,0.9,4.7,2.6l-3.1,1.7c-0.3-0.6-0.8-1.1-1.6-1.1c-0.6,0-1,0.2-1,0.7
		C166.1,20.7,172,19.7,172,24.2z"/>
	<path class="st30" d="M186.8,21.8c0,3.6-2.6,6.4-5.8,6.4c-1.6,0-2.8-0.6-3.6-1.5v5.9h-3.6V15.8h3.6v1.1c0.8-0.9,2-1.5,3.6-1.5
		C184.2,15.4,186.8,18.2,186.8,21.8z M183.2,21.8c0-1.8-1.2-2.9-2.9-2.9c-1.7,0-2.9,1.1-2.9,2.9c0,1.8,1.2,2.9,2.9,2.9
		C182,24.7,183.2,23.6,183.2,21.8z"/>
	<path class="st30" d="M188.3,21.8c0-3.6,2.8-6.4,6.4-6.4c3.5,0,6.4,2.8,6.4,6.4c0,3.6-2.8,6.4-6.4,6.4
		C191.1,28.1,188.3,25.4,188.3,21.8z M197.4,21.8c0-1.7-1.2-2.8-2.8-2.8c-1.6,0-2.8,1.1-2.8,2.8c0,1.7,1.2,2.8,2.8,2.8
		C196.2,24.6,197.4,23.5,197.4,21.8z"/>
	<path class="st30" d="M215.4,11v16.8h-3.6v-1.1c-0.8,0.9-2,1.5-3.6,1.5c-3.2,0-5.8-2.8-5.8-6.4c0-3.6,2.6-6.4,5.8-6.4
		c1.6,0,2.8,0.6,3.6,1.5V11H215.4z M211.8,21.8c0-1.8-1.2-2.9-2.9-2.9c-1.7,0-2.9,1.1-2.9,2.9c0,1.8,1.2,2.9,2.9,2.9
		C210.6,24.7,211.8,23.6,211.8,21.8z"/>
	<path class="st30" d="M230.4,15.8v12h-3.6v-1.1c-0.8,0.9-2,1.5-3.6,1.5c-3.2,0-5.8-2.8-5.8-6.4c0-3.6,2.6-6.4,5.8-6.4
		c1.6,0,2.8,0.6,3.6,1.5v-1.1H230.4z M226.8,21.8c0-1.8-1.2-2.9-2.9-2.9c-1.7,0-2.9,1.1-2.9,2.9c0,1.8,1.2,2.9,2.9,2.9
		C225.6,24.7,226.8,23.6,226.8,21.8z"/>
	<path class="st30" d="M240.3,15.5v4.1c-1.5-0.2-3.6,0.4-3.6,2.7v5.4h-3.6v-12h3.6v2.1C237.2,16.3,238.8,15.5,240.3,15.5z"/>
	<path class="st30" d="M249.4,27.8l-3.9-5.3v5.3H242V11h3.6V21l3.6-5.3h4.2l-4.4,6l4.5,6H249.4z"/>
	<path class="st30" d="M266.5,15.8v12h-3.6v-1.1c-0.8,0.9-2,1.5-3.6,1.5c-3.2,0-5.8-2.8-5.8-6.4c0-3.6,2.6-6.4,5.8-6.4
		c1.6,0,2.8,0.6,3.6,1.5v-1.1H266.5z M262.9,21.8c0-1.8-1.2-2.9-2.9-2.9c-1.7,0-2.9,1.1-2.9,2.9c0,1.8,1.2,2.9,2.9,2.9
		C261.7,24.7,262.9,23.6,262.9,21.8z"/>
	<path class="st29" d="M268.9,25.9c0-1.3,1-2.3,2.3-2.3c1.3,0,2.3,1,2.3,2.3c0,1.3-1,2.3-2.3,2.3C269.9,28.1,268.9,27.1,268.9,25.9z
		"/>
	<path class="st29" d="M288.8,21.8c0,3.6-2.6,6.4-5.8,6.4c-1.6,0-2.8-0.6-3.6-1.5v5.9h-3.6V15.8h3.6v1.1c0.8-0.9,2-1.5,3.6-1.5
		C286.2,15.4,288.8,18.2,288.8,21.8z M285.2,21.8c0-1.8-1.2-2.9-2.9-2.9s-2.9,1.1-2.9,2.9c0,1.8,1.2,2.9,2.9,2.9
		S285.2,23.6,285.2,21.8z"/>
	<path class="st29" d="M290.9,10.2h3.6v17.6h-3.6V10.2z"/>
</g>
</svg>
